<svg viewBox="0 0 26 26" fill="none" xmlns="http://www.w3.org/2000/svg">
<path d="M13 26C20.1797 26 26 20.1797 26 13C26 5.8203 20.1797 0 13 0C5.8203 0 0 5.8203 0 13C0 20.1797 5.8203 26 13 26Z" fill="#2BA3D6"/>
<path d="M4.84155 13.6358C6.36125 12.7988 8.05764 12.1001 9.64267 11.3979C12.3695 10.2477 15.1072 9.11746 17.8725 8.06522C18.4106 7.88594 19.3773 7.71063 19.4721 8.50793C19.4201 9.63655 19.2066 10.7586 19.0602 11.8806C18.6885 14.348 18.2588 16.8069 17.8398 19.2662C17.6954 20.0854 16.6693 20.5094 16.0127 19.9852C14.4347 18.9193 12.8446 17.8638 11.2867 16.7732C10.7764 16.2547 11.2496 15.51 11.7054 15.1398C13.0051 13.8589 14.3834 12.7707 15.6151 11.4237C15.9474 10.6214 14.9657 11.2976 14.6418 11.5048C12.8626 12.7309 11.1269 14.0319 9.25095 15.1094C8.29275 15.6369 7.17594 15.1862 6.21816 14.8918C5.35941 14.5363 4.101 14.1781 4.84146 13.6359L4.84155 13.6358Z" fill="white"/>
</svg>
