<svg viewBox="0 0 26 26" fill="none" xmlns="http://www.w3.org/2000/svg">
<path d="M13 26C20.1797 26 26 20.1797 26 13C26 5.8203 20.1797 0 13 0C5.8203 0 0 5.8203 0 13C0 20.1797 5.8203 26 13 26Z" fill="#4680C2"/>
<path fill-rule="evenodd" clip-rule="evenodd" d="M20.6 9.70217C20.726 9.30607 20.6 9.018 20.0418 9.018H18.1874C17.7193 9.018 17.5032 9.27006 17.3772 9.54013C17.3772 9.54013 16.423 11.8447 15.0906 13.339C14.6585 13.7711 14.4605 13.9152 14.2264 13.9152C14.1004 13.9152 13.9384 13.7711 13.9384 13.375V9.68416C13.9384 9.21605 13.7943 9 13.3982 9H10.4815C10.1935 9 10.0134 9.21605 10.0134 9.4321C10.0134 9.88221 10.6796 9.99024 10.7516 11.2505V13.9872C10.7516 14.5813 10.6436 14.6894 10.4095 14.6894C9.77938 14.6894 8.24901 12.3668 7.33079 9.72017C7.15075 9.19805 6.97071 9 6.5026 9H4.63015C4.09002 9 4 9.25206 4 9.52212C4 10.0082 4.63015 12.4568 6.9347 15.6976C8.46507 17.9121 10.6436 19.1004 12.6061 19.1004C13.7943 19.1004 13.9384 18.8303 13.9384 18.3802V16.7058C13.9384 16.1657 14.0464 16.0757 14.4245 16.0757C14.6946 16.0757 15.1807 16.2197 16.2789 17.282C17.5392 18.5423 17.7553 19.1184 18.4574 19.1184H20.3119C20.852 19.1184 21.1041 18.8484 20.96 18.3262C20.798 17.8041 20.1859 17.0479 19.3937 16.1477C18.9616 15.6436 18.3134 15.0855 18.1154 14.8154C17.8453 14.4553 17.9173 14.3113 18.1154 13.9872C18.0974 13.9872 20.3659 10.7824 20.6 9.70217Z" fill="white"/>
</svg>
