<svg viewBox="0 0 26 26" fill="none" xmlns="http://www.w3.org/2000/svg">
<circle cx="13" cy="13" r="13" fill="#48C95F"/>
<path d="M18.1524 7.8406C16.8683 6.56091 15.1561 5.84998 13.3488 5.84998C9.59146 5.84998 6.54756 8.88331 6.54756 12.6276C6.54756 13.8125 6.88049 14.9974 7.45122 15.9927L6.5 19.5L10.1146 18.5521C11.1134 19.0734 12.2073 19.3578 13.3488 19.3578C17.1061 19.3578 20.15 16.3245 20.15 12.5802C20.1024 10.8265 19.4366 9.12029 18.1524 7.8406ZM16.6305 15.0448C16.4878 15.4239 15.822 15.8031 15.489 15.8505C15.2037 15.8979 14.8232 15.8979 14.4427 15.8031C14.2049 15.7083 13.872 15.6135 13.4915 15.4239C11.7793 14.713 10.6854 13.0067 10.5902 12.8646C10.4951 12.7698 9.87683 11.964 9.87683 11.1109C9.87683 10.2578 10.3049 9.87862 10.4476 9.68904C10.5902 9.49945 10.7805 9.49945 10.9232 9.49945C11.0183 9.49945 11.161 9.49945 11.2561 9.49945C11.3512 9.49945 11.4939 9.45206 11.6366 9.78383C11.7793 10.1156 12.1122 10.9687 12.1598 11.0161C12.2073 11.1109 12.2073 11.2057 12.1598 11.3005C12.1122 11.3953 12.0646 11.4901 11.9695 11.5849C11.8744 11.6797 11.7793 11.8219 11.7317 11.8692C11.6366 11.964 11.5415 12.0588 11.6366 12.201C11.7317 12.3906 12.0646 12.912 12.5878 13.3859C13.2537 13.9547 13.7768 14.1442 13.9671 14.239C14.1573 14.3338 14.2524 14.2864 14.3476 14.1916C14.4427 14.0969 14.7756 13.7177 14.8707 13.5281C14.9659 13.3385 15.1085 13.3859 15.2512 13.4333C15.3939 13.4807 16.25 13.9073 16.3927 14.0021C16.5829 14.0969 16.678 14.1442 16.7256 14.1916C16.7732 14.3338 16.7732 14.6656 16.6305 15.0448Z" fill="white"/>
</svg>
